<?xml version="1.0" standalone="no"?>
<!DOCTYPE svg PUBLIC "-//W3C//DTD SVG 20010904//EN"
 "http://www.w3.org/TR/2001/REC-SVG-20010904/DTD/svg10.dtd">
<svg version="1.0" xmlns="http://www.w3.org/2000/svg"
 width="256.000000pt" height="256.000000pt" viewBox="0 0 256.000000 256.000000"
 preserveAspectRatio="xMidYMid meet">
<metadata>
Created by potrace 1.14, written by Peter Selinger 2001-2017
</metadata>
<g transform="translate(0.000000,256.000000) scale(0.100000,-0.100000)"
fill="#000000" stroke="none">
<path d="M1209 2537 c-53 -28 -89 -85 -89 -142 0 -40 -1 -40 -71 -73 -201 -95
-323 -338 -280 -559 7 -37 6 -42 -13 -47 -12 -3 -34 -19 -50 -35 -59 -62 -39
-174 36 -205 32 -14 33 -17 264 -730 127 -394 237 -723 244 -731 16 -19 44
-19 60 0 7 8 117 337 244 731 231 713 232 716 264 730 75 31 95 143 36 205
-16 16 -38 32 -49 35 -19 5 -20 9 -11 75 29 211 -89 438 -272 525 -61 29 -61
29 -61 73 -1 63 -39 124 -94 150 -56 27 -103 27 -158 -2z m140 -35 c67 -34 90
-121 48 -183 -29 -43 -60 -59 -116 -59 -37 0 -49 5 -82 39 -33 33 -39 45 -39
82 0 105 98 168 189 121z m-182 -231 c74 -74 164 -76 244 -4 l40 37 52 -26
c69 -34 127 -86 171 -152 20 -30 36 -57 36 -60 0 -2 -15 -6 -32 -8 -28 -3 -37
-10 -58 -53 -42 -83 -71 -75 -173 48 -63 77 -115 73 -182 -15 -23 -31 -44 -48
-57 -48 -12 0 -45 23 -74 50 -57 54 -84 61 -133 36 -15 -8 -38 -31 -52 -50
-38 -57 -77 -59 -99 -6 -10 25 -8 34 16 77 40 69 121 146 190 182 32 16 62 30
65 31 4 0 24 -18 46 -39z m270 -272 c53 -67 85 -89 135 -89 46 0 72 21 87 69
6 23 14 41 17 41 23 0 63 -34 68 -57 18 -97 16 -156 -9 -255 -7 -26 -5 -28 23
-28 38 0 79 -32 87 -69 9 -40 -18 -89 -53 -98 -15 -4 -253 -7 -529 -8 -494 0
-503 0 -523 21 -11 11 -23 37 -27 57 -5 31 -1 40 25 67 21 21 40 30 62 30 29
0 32 3 26 23 -21 78 -28 143 -21 202 3 36 10 65 14 65 4 0 16 -7 27 -15 20
-15 61 -19 89 -9 8 4 29 26 46 50 42 61 76 61 139 -1 27 -27 58 -47 79 -51 31
-6 37 -3 89 55 74 79 88 79 149 0z m299 -556 c-65 -206 -83 -248 -105 -245
-13 2 -24 -3 -28 -13 -6 -18 15 -38 30 -28 11 6 11 8 -61 -214 -47 -144 -58
-169 -68 -155 -10 14 -14 14 -28 3 -13 -11 -14 -17 -5 -28 7 -8 19 -11 26 -9
17 7 28 43 -105 -366 -58 -181 -109 -328 -113 -328 -4 0 -10 11 -13 24 -3 13
-9 31 -12 40 -4 11 0 16 13 16 25 0 33 8 26 26 -7 19 -30 18 -41 -1 -6 -11
-21 24 -52 122 -24 76 -45 144 -48 152 -3 8 -1 12 5 8 15 -9 34 16 24 32 -5 7
-16 11 -26 9 -16 -3 -38 58 -162 437 -78 242 -149 461 -157 488 l-15 47 460 0
c434 0 460 -1 455 -17z"/>
<path d="M933 1384 c-3 -8 -1 -20 5 -26 15 -15 43 8 35 28 -7 19 -32 18 -40
-2z"/>
<path d="M1073 1384 c-3 -8 -1 -20 5 -26 15 -15 43 8 35 28 -7 19 -32 18 -40
-2z"/>
<path d="M1213 1384 c-3 -8 -1 -20 5 -26 15 -15 43 8 35 28 -7 19 -32 18 -40
-2z"/>
<path d="M1353 1384 c-3 -8 -1 -20 5 -26 15 -15 43 8 35 28 -7 19 -32 18 -40
-2z"/>
<path d="M1493 1384 c-3 -8 -1 -20 5 -26 15 -15 43 8 35 28 -7 19 -32 18 -40
-2z"/>
<path d="M1633 1384 c-3 -8 -1 -20 5 -26 15 -15 43 8 35 28 -7 19 -32 18 -40
-2z"/>
<path d="M1000 1280 c0 -13 7 -20 20 -20 13 0 20 7 20 20 0 13 -7 20 -20 20
-13 0 -20 -7 -20 -20z"/>
<path d="M1140 1280 c0 -13 7 -20 18 -20 24 0 32 8 25 26 -8 22 -43 17 -43 -6z"/>
<path d="M1280 1280 c0 -13 7 -20 20 -20 13 0 20 7 20 20 0 13 -7 20 -20 20
-13 0 -20 -7 -20 -20z"/>
<path d="M1427 1293 c-14 -13 -7 -33 11 -33 24 0 32 8 25 26 -5 15 -25 19 -36
7z"/>
<path d="M1560 1280 c0 -16 5 -21 23 -18 12 2 22 10 22 18 0 8 -10 16 -22 18
-18 3 -23 -2 -23 -18z"/>
<path d="M934 1186 c-7 -19 3 -36 22 -36 10 0 14 8 12 22 -4 26 -26 36 -34 14z"/>
<path d="M1074 1185 c-7 -18 3 -35 21 -35 18 0 26 25 12 39 -15 15 -27 14 -33
-4z"/>
<path d="M1214 1185 c-7 -18 3 -35 21 -35 18 0 26 25 12 39 -15 15 -27 14 -33
-4z"/>
<path d="M1354 1185 c-7 -18 3 -35 21 -35 18 0 26 25 12 39 -15 15 -27 14 -33
-4z"/>
<path d="M1494 1185 c-7 -18 3 -35 21 -35 18 0 26 25 12 39 -15 15 -27 14 -33
-4z"/>
<path d="M1003 1084 c-7 -20 17 -37 34 -23 15 13 6 39 -13 39 -8 0 -17 -7 -21
-16z"/>
<path d="M1143 1084 c-7 -20 17 -37 34 -23 15 13 6 39 -13 39 -8 0 -17 -7 -21
-16z"/>
<path d="M1283 1084 c-3 -8 -1 -20 5 -26 15 -15 43 8 35 28 -7 19 -32 18 -40
-2z"/>
<path d="M1423 1084 c-7 -20 17 -37 34 -23 15 13 6 39 -13 39 -8 0 -17 -7 -21
-16z"/>
<path d="M1563 1084 c-7 -20 17 -37 34 -23 15 13 6 39 -13 39 -8 0 -17 -7 -21
-16z"/>
<path d="M1072 973 c5 -26 38 -29 38 -4 0 15 -6 21 -21 21 -14 0 -19 -5 -17
-17z"/>
<path d="M1210 975 c0 -21 30 -31 40 -14 11 17 3 29 -21 29 -10 0 -19 -7 -19
-15z"/>
<path d="M1352 973 c5 -26 38 -29 38 -4 0 15 -6 21 -21 21 -14 0 -19 -5 -17
-17z"/>
<path d="M1490 975 c0 -21 30 -31 40 -14 11 17 3 29 -21 29 -10 0 -19 -7 -19
-15z"/>
<path d="M1024 885 c-7 -18 3 -35 21 -35 18 0 26 25 12 39 -15 15 -27 14 -33
-4z"/>
<path d="M1144 885 c-7 -18 3 -35 21 -35 18 0 26 25 12 39 -15 15 -27 14 -33
-4z"/>
<path d="M1284 885 c-7 -18 3 -35 21 -35 18 0 26 25 12 39 -15 15 -27 14 -33
-4z"/>
<path d="M1424 885 c-7 -18 3 -35 21 -35 18 0 26 25 12 39 -15 15 -27 14 -33
-4z"/>
<path d="M1073 774 c-7 -20 17 -37 34 -23 15 13 6 39 -13 39 -8 0 -17 -7 -21
-16z"/>
<path d="M1213 774 c-7 -20 17 -37 34 -23 15 13 6 39 -13 39 -8 0 -17 -7 -21
-16z"/>
<path d="M1353 774 c-7 -20 17 -37 34 -23 15 13 6 39 -13 39 -8 0 -17 -7 -21
-16z"/>
<path d="M1142 673 c5 -26 38 -29 38 -4 0 15 -6 21 -21 21 -14 0 -19 -5 -17
-17z"/>
<path d="M1280 675 c0 -21 30 -31 40 -14 11 17 3 29 -21 29 -10 0 -19 -7 -19
-15z"/>
<path d="M1420 675 c0 -21 30 -31 40 -14 11 17 3 29 -21 29 -10 0 -19 -7 -19
-15z"/>
<path d="M1213 574 c-9 -23 13 -40 32 -24 12 10 13 16 4 26 -15 18 -28 18 -36
-2z"/>
<path d="M1353 574 c-9 -23 13 -40 32 -24 12 10 13 16 4 26 -15 18 -28 18 -36
-2z"/>
<path d="M1283 474 c-7 -20 17 -37 34 -23 15 13 6 39 -13 39 -8 0 -17 -7 -21
-16z"/>
<path d="M1210 365 c0 -21 30 -31 40 -14 11 17 3 29 -21 29 -10 0 -19 -7 -19
-15z"/>
<path d="M1304 369 c-9 -15 12 -33 30 -26 9 4 16 13 16 22 0 17 -35 21 -46 4z"/>
<path d="M1283 274 c-9 -23 13 -40 32 -24 12 10 13 16 4 26 -15 18 -28 18 -36
-2z"/>
</g>
</svg>
